<?xml version="1.0" encoding="utf-8"?>
<svg viewBox="300 0 75 500" xmlns="http://www.w3.org/2000/svg">
  <rect x="105.223" y="100" width="499.945" height="5" style="stroke: rgb(0, 0, 0); fill: rgb(10, 10, 10); stroke-opacity: 0;" transform="matrix(0, -1, 1, 0, 197.5905, 605.223022)"/>
  <rect x="105.223" y="175" width="500" height="5" style="stroke: rgb(0, 0, 0); fill: rgb(10, 10, 10); stroke-opacity: 0;" transform="matrix(0, -1, 1, 0, 197.5905, 605.223022)"/>
  <rect x="105.223" y="137.5" width="26.306" height="5" style="stroke: rgb(0, 0, 0); fill: rgb(10, 10, 10); stroke-opacity: 0;" transform="matrix(0, -1, 1, 0, 197.5905, 605.223022)"/>
  <rect x="157.835" y="137.5" width="26.306" height="5" style="stroke: rgb(0, 0, 0); fill: rgb(10, 10, 10); stroke-opacity: 0;" transform="matrix(0, -1, 1, 0, 197.5905, 605.223022)"/>
  <rect x="210.446" y="137.5" width="26.306" height="5" style="stroke: rgb(0, 0, 0); fill: rgb(10, 10, 10); stroke-opacity: 0;" transform="matrix(0, -1, 1, 0, 197.5905, 605.223022)"/>
  <rect x="263.058" y="137.5" width="26.306" height="5" style="stroke: rgb(0, 0, 0); fill: rgb(10, 10, 10); stroke-opacity: 0;" transform="matrix(0, -1, 1, 0, 197.5905, 605.223022)"/>
  <rect x="315.669" y="137.5" width="26.306" height="5" style="stroke: rgb(0, 0, 0); fill: rgb(10, 10, 10); stroke-opacity: 0;" transform="matrix(0, -1, 1, 0, 197.5905, 605.223022)"/>
  <rect x="368.281" y="137.5" width="26.306" height="5" style="stroke: rgb(0, 0, 0); fill: rgb(10, 10, 10); stroke-opacity: 0;" transform="matrix(0, -1, 1, 0, 197.5905, 605.223022)"/>
  <rect x="420.892" y="137.5" width="26.306" height="5" style="stroke: rgb(0, 0, 0); fill: rgb(10, 10, 10); stroke-opacity: 0;" transform="matrix(0, -1, 1, 0, 197.5905, 605.223022)"/>
  <rect x="473.504" y="137.5" width="26.306" height="5" style="stroke: rgb(0, 0, 0); fill: rgb(10, 10, 10); stroke-opacity: 0;" transform="matrix(0, -1, 1, 0, 197.5905, 605.223022)"/>
  <rect x="526.115" y="137.5" width="26.306" height="5" style="stroke: rgb(0, 0, 0); fill: rgb(10, 10, 10); stroke-opacity: 0;" transform="matrix(0, -1, 1, 0, 197.5905, 605.223022)"/>
  <rect x="578.727" y="137.5" width="26.415" height="5" style="stroke: rgb(0, 0, 0); fill: rgb(10, 10, 10); stroke-opacity: 0;" transform="matrix(0, -1, 1, 0, 197.5905, 605.223022)"/>
</svg>